<mxfile host="app.diagrams.net" modified="2023-04-07T23:59:24.327Z" agent="Mozilla/5.0 (Macintosh; Intel Mac OS X 10_15_7) AppleWebKit/605.1.15 (KHTML, like Gecko) Version/16.3 Safari/605.1.15" version="21.1.5" etag="_Ebyed12Zlufk5oJikFi" type="github">
  <diagram name="Page-1" id="t4Jn5vpzDotKNJ8F9sPx">
    <mxGraphModel>
      <root>
        <mxCell id="0" />
        <mxCell id="1" parent="0" />
      </root>
    </mxGraphModel>
  </diagram>
</mxfile>
